HIERARCHY
ROOT Hips
{
	OFFSET 0.00000 0.00000 0.00000
	CHANNELS 6 Xposition Yposition Zposition Zrotation Yrotation Xrotation 
	JOINT LHipJoint
	{
		OFFSET 0 0 0
		CHANNELS 3 Zrotation Yrotation Xrotation
		JOINT LeftUpLeg
		{
			OFFSET 2.10660 -1.59283 1.11709
			CHANNELS 3 Zrotation Yrotation Xrotation
			JOINT LeftLeg
			{
				OFFSET 2.03633 -5.59477 0.00000
				CHANNELS 3 Zrotation Yrotation Xrotation
				JOINT LeftFoot
				{
					OFFSET 2.74354 -7.53782 0.00000
					CHANNELS 3 Zrotation Yrotation Xrotation
					JOINT LeftToeBase
					{
						OFFSET 0.09177 -0.25215 1.99109
						CHANNELS 3 Zrotation Yrotation Xrotation
						End Site
						{
							OFFSET 0.00000 -0.00000 1.01710
						}
					}
				}
			}
		}
	}
	JOINT RHipJoint
	{
		OFFSET 0 0 0
		CHANNELS 3 Zrotation Yrotation Xrotation
		JOINT RightUpLeg
		{
			OFFSET -1.86456 -1.59283 1.11709
			CHANNELS 3 Zrotation Yrotation Xrotation
			JOINT RightLeg
			{
				OFFSET -2.09328 -5.75123 0.00000
				CHANNELS 3 Zrotation Yrotation Xrotation
				JOINT RightFoot
				{
					OFFSET -2.65375 -7.29113 0.00000
					CHANNELS 3 Zrotation Yrotation Xrotation
					JOINT RightToeBase
					{
						OFFSET -0.08891 -0.24428 1.95541
						CHANNELS 3 Zrotation Yrotation Xrotation
						End Site
						{
							OFFSET -0.00000 -0.00000 0.99928
						}
					}
				}
			}
		}
	}
	JOINT LowerBack
	{
		OFFSET 0 0 0
		CHANNELS 3 Zrotation Yrotation Xrotation
		JOINT Spine
		{
			OFFSET -0.11002 1.82513 -0.30878
			CHANNELS 3 Zrotation Yrotation Xrotation
			JOINT Spine1
			{
				OFFSET 0.02136 1.89008 0.15052
				CHANNELS 3 Zrotation Yrotation Xrotation
				JOINT Neck
				{
					OFFSET 0 0 0
					CHANNELS 3 Zrotation Yrotation Xrotation
					JOINT Neck1
					{
						OFFSET -0.02611 1.82648 0.12298
						CHANNELS 3 Zrotation Yrotation Xrotation
						JOINT Head
						{
							OFFSET 0.06033 1.80858 -0.32888
							CHANNELS 3 Zrotation Yrotation Xrotation
							End Site
							{
								OFFSET 0.01403 1.85203 -0.12607
							}
						}
					}
				}
				JOINT LeftShoulder
				{
					OFFSET 0 0 0
					CHANNELS 3 Zrotation Yrotation Xrotation
					JOINT LeftArm
					{
						OFFSET 3.64598 0.79256 -0.42249
						CHANNELS 3 Zrotation Yrotation Xrotation
						JOINT LeftForeArm
						{
							OFFSET 4.92383 -0.00000 0.00000
							CHANNELS 3 Zrotation Yrotation Xrotation
							JOINT LeftHand
							{
								OFFSET 2.65826 -0.00000 0.00000
								CHANNELS 3 Zrotation Yrotation Xrotation
								JOINT LeftFingerBase
								{
									OFFSET 0 0 0
									CHANNELS 3 Zrotation Yrotation Xrotation
									JOINT LeftHandIndex1
									{
										OFFSET 0.73343 -0.00000 0.00000
										CHANNELS 3 Zrotation Yrotation Xrotation
										End Site
										{
											OFFSET 0.59131 -0.00000 0.00000
										}
									}
								}
								JOINT LThumb
								{
									OFFSET 0 0 0
									CHANNELS 3 Zrotation Yrotation Xrotation
									End Site
									{
										OFFSET 0.60034 -0.00000 0.60034
									}
								}
							}
						}
					}
				}
				JOINT RightShoulder
				{
					OFFSET 0 0 0
					CHANNELS 3 Zrotation Yrotation Xrotation
					JOINT RightArm
					{
						OFFSET -3.83899 0.50520 -0.46242
						CHANNELS 3 Zrotation Yrotation Xrotation
						JOINT RightForeArm
						{
							OFFSET -4.63604 -0.00000 0.00000
							CHANNELS 3 Zrotation Yrotation Xrotation
							JOINT RightHand
							{
								OFFSET -2.86243 -0.00000 -0.00000
								CHANNELS 3 Zrotation Yrotation Xrotation
								JOINT RightFingerBase
								{
									OFFSET 0 0 0
									CHANNELS 3 Zrotation Yrotation Xrotation
									JOINT RightHandIndex1
									{
										OFFSET -0.75891 -0.00000 0.00000
										CHANNELS 3 Zrotation Yrotation Xrotation
										End Site
										{
											OFFSET -0.61185 -0.00000 0.00000
										}
									}
								}
								JOINT RThumb
								{
									OFFSET 0 0 0
									CHANNELS 3 Zrotation Yrotation Xrotation
									End Site
									{
										OFFSET -0.62119 -0.00000 0.62119
									}
								}
							}
						}
					}
				}
			}
		}
	}
}
MOTION
Frames: 6
Frame Time: .0083333
-1.418600 16.425600 -25.844300 1.522400 4.912900 2.105500 0.000000 0.000000 0.000000 -16.720100 -4.721200 -22.331500 13.538600 18.968100 70.790300 0.104400 3.856700 5.952500 0.334500 3.716600 10.280700 0.000000 0.000000 0.000000 23.684100 17.658700 -7.008900 -2.137900 -9.147500 26.257900 -0.551200 -5.922300 -17.431600 -0.774100 -5.617900 15.679700 -7.682800 0.126800 13.097200 1.911800 -1.003000 -4.540600 6.721300 0.226700 -12.283700 -4.678900 -6.443900 -8.118500 4.819000 -9.064300 18.001400 1.520200 -4.263000 7.286600 0.000000 -0.000000 0.000000 -89.872000 6.630400 17.627500 14.637400 -23.638600 -3.079100 -0.000000 0.000000 -0.357300 5.470900 16.845000 1.589800 -7.125000 0.000000 -0.000000 -20.871500 45.793300 -0.427300 0.000000 -0.000000 0.000000 84.762600 -9.196200 25.061000 -13.518800 22.042600 -2.644800 0.000000 0.000000 7.970300 -8.418900 17.849800 -2.597500 7.125000 -0.000000 -0.000000 12.850200 -12.279700 10.086300
-1.386600 16.439800 -25.688900 1.529800 3.926400 1.571200 0.000000 0.000000 0.000000 -17.079500 -3.895800 -22.076100 13.406000 18.923900 70.381900 0.046800 3.451200 4.238300 0.328100 3.681700 10.182800 0.000000 0.000000 0.000000 23.967600 17.502500 -5.395200 -2.032300 -8.933000 25.586000 -0.562900 -5.534800 -17.269800 -0.704700 -5.365700 14.954500 -7.270500 0.494700 12.357800 1.732800 -0.382200 -4.080700 6.113500 0.422800 -11.415600 -4.470600 -6.617200 -8.525700 4.675700 -9.297900 18.084400 1.402800 -4.363700 7.381000 0.000000 -0.000000 0.000000 -89.762000 6.103700 17.783800 14.588100 -23.569200 -3.059300 -0.000000 0.000000 -0.696900 5.365600 17.531500 1.620600 -7.125000 0.000000 -0.000000 -21.240500 46.421200 -0.779700 0.000000 -0.000000 0.000000 84.797600 -8.678200 24.782200 -13.442900 21.932800 -2.616400 0.000000 0.000000 8.112900 -8.594900 18.202800 -2.703200 7.125000 -0.000000 -0.000000 12.730200 -11.919700 10.084700
-1.382100 16.444300 -25.581600 1.519800 3.717000 1.396400 0.000000 0.000000 0.000000 -17.164900 -3.977300 -22.583100 13.340700 18.901700 70.180400 0.012500 3.189000 2.835000 0.345700 3.777900 10.452800 0.000000 0.000000 0.000000 24.190700 17.319500 -4.461800 -1.962000 -8.786500 25.129800 -0.602200 -5.297800 -17.543200 -0.770900 -5.606500 15.646800 -7.071200 0.701700 12.263700 1.590600 -0.074300 -3.944300 5.769800 0.536800 -11.250800 -4.148900 -6.785600 -9.486100 4.556300 -9.556700 18.575900 1.246700 -4.449300 7.704000 0.000000 0.000000 0.000000 -89.587100 5.890600 18.106200 14.610100 -23.600200 -3.068200 -0.000000 0.000000 -1.036800 5.391900 17.961000 1.667100 -7.125000 0.000000 -0.000000 -21.394500 46.824900 -1.008500 0.000000 0.000000 0.000000 85.037100 -8.145000 24.094100 -13.259700 21.666600 -2.548400 0.000000 0.000000 8.647000 -8.621000 18.588100 -2.766800 7.125000 -0.000000 -0.000000 12.708100 -11.539000 10.168800
-1.386700 16.446100 -25.512200 1.543900 3.223700 1.511500 0.000000 0.000000 0.000000 -17.172100 -3.910900 -23.704100 13.273600 18.878700 69.973200 -0.006800 2.746600 1.474700 0.354800 3.826700 10.589600 0.000000 0.000000 0.000000 24.186600 17.217800 -4.183700 -1.906000 -8.667500 24.760500 -0.607900 -4.965500 -17.371700 -0.746700 -5.519600 15.396600 -7.041000 0.993100 12.255800 1.468300 0.307500 -4.046900 5.534400 0.720900 -11.421300 -4.394400 -6.898400 -8.471000 4.960300 -9.760100 18.165300 1.436500 -4.554200 7.431700 -0.000000 -0.000000 0.000000 -89.434800 6.238300 18.432300 14.844100 -23.928500 -3.162400 -0.000000 0.000000 -1.243600 5.392300 17.800300 1.652900 -7.125000 0.000000 -0.000000 -21.327200 46.675100 -0.922700 -0.000000 -0.000000 0.000000 85.257600 -7.708500 23.620200 -13.137700 21.488600 -2.503500 0.000000 0.000000 8.909100 -8.459400 18.197000 -2.659200 7.125000 -0.000000 -0.000000 12.818000 -11.935700 10.153600
-1.394500 16.441400 -25.447700 1.511000 2.641200 1.771500 0.000000 0.000000 0.000000 -17.063500 -3.850100 -25.034200 13.220700 18.860400 69.809400 -0.011900 2.116100 0.134200 0.444800 4.279300 11.863800 0.000000 0.000000 0.000000 24.191300 17.278300 -4.231900 -1.887100 -8.626800 24.634600 -0.609700 -4.586600 -17.131800 -0.693500 -5.323700 14.834000 -6.966700 1.239500 12.022900 1.349300 0.655000 -4.089500 5.282000 0.874800 -11.379600 -4.318400 -6.976000 -8.075700 5.062000 -9.891700 17.855600 1.462100 -4.616600 7.268700 -0.000000 0.000000 0.000000 -89.177000 6.152900 18.620200 15.028500 -24.185800 -3.237600 -0.000000 0.000000 -1.466200 5.035600 18.176200 1.574500 -7.125000 0.000000 -0.000000 -21.804000 46.978500 -1.116000 -0.000000 0.000000 0.000000 85.425000 -7.222900 23.450100 -13.221500 21.610900 -2.534300 0.000000 0.000000 8.722100 -8.020300 17.468400 -2.421900 7.125000 -0.000000 -0.000000 13.117300 -12.682900 10.194200
-1.396900 16.422700 -25.346200 1.738000 4.715300 1.123700 0.000000 0.000000 0.000000 -17.362200 -6.090300 -24.724500 13.124300 18.826600 69.511200 -0.007300 1.593300 -1.112900 0.491800 4.496300 12.477400 0.000000 0.000000 0.000000 24.528400 16.338600 -2.900700 -1.885100 -8.622600 24.621800 -0.717600 -5.449200 -18.897300 -0.747100 -5.521300 15.401500 -6.736400 0.618800 12.408100 1.196700 -0.173600 -3.670200 5.162200 0.429900 -11.004500 -4.248000 -7.028000 -8.502100 5.031100 -9.957900 17.915500 1.417900 -4.635800 7.362000 0.000000 0.000000 0.000000 -89.053200 5.639800 18.579700 15.014700 -24.166600 -3.232000 -0.000000 0.000000 -1.355000 4.800200 18.256000 1.506900 -7.125000 0.000000 -0.000000 -22.048600 47.021600 -1.154300 0.000000 0.000000 0.000000 85.490600 -6.614600 23.388600 -13.283700 21.701500 -2.557200 0.000000 0.000000 8.526200 -7.801800 17.198100 -2.319900 7.125000 -0.000000 -0.000000 13.266400 -12.962900 10.236800
